PathFileType	4	(X/Y/Z)	C:\Users\dbl\Desktop\20210112(1)\20210112\bx_y_5_901.trc
DataRate	CameraRate	NumFrames	NumMarkers	Units	OrigDataRate	OrigDataStartFrame	OrigNumFrames
50.00	50.00	       5	43	mm	50.00	66	       527
Frame#	Time	Top.Head			R.Acromium			L.Acromium			Sternum			R.ASIS			L.ASIS			V.Sacral			R.Thigh.Upper			R.Thigh.Front			R.Thigh.Rear			R.Knee.Lat			R.Knee.Med			R.Shank.Upper			R.Shank.Front			R.Shank.Rear			R.Ankle.Lat			R.Midfoot.Lat			R.Toe.Lat			R.Toe.Tip			R.Toe.Med			R.Ankle.Med			R.Midfoot.Sup			R.Heel			L.Thigh.Upper			L.Thigh.Front			L.Thigh.Rear			L.Knee.Lat			L.Knee.Med			L.Shank.Upper			L.Shank.Front			L.Shank.Rear			L.Ankle.Lat			L.Midfoot.Lat			L.Toe.Lat			L.Toe.Tip			L.Toe.Med			L.Ankle.Med			L.Midfoot.Sup			L.Heel			origin1 front left			origin2 front right			origin 3 back right			origin 4 back leftt			
		X1	Y1	Z1	X2	Y2	Z2	X3	Y3	Z3	X4	Y4	Z4	X5	Y5	Z5	X6	Y6	Z6	X7	Y7	Z7	X8	Y8	Z8	X9	Y9	Z9	X10	Y10	Z10	X11	Y11	Z11	X12	Y12	Z12	X13	Y13	Z13	X14	Y14	Z14	X15	Y15	Z15	X16	Y16	Z16	X17	Y17	Z17	X18	Y18	Z18	X19	Y19	Z19	X20	Y20	Z20	X21	Y21	Z21	X22	Y22	Z22	X23	Y23	Z23	X24	Y24	Z24	X25	Y25	Z25	X26	Y26	Z26	X27	Y27	Z27	X28	Y28	Z28	X29	Y29	Z29	X30	Y30	Z30	X31	Y31	Z31	X32	Y32	Z32	X33	Y33	Z33	X34	Y34	Z34	X35	Y35	Z35	X36	Y36	Z36	X37	Y37	Z37	X38	Y38	Z38	X39	Y39	Z39	X40	Y40	Z40	X41	Y41	Z41	X42	Y42	Z42	X43	Y43	Z43	

66	1.300	-443.71729	121.67248	1785.31445	-614.45343	-59.53860	1549.24023	-642.71478	289.16074	1536.24316	-572.24371	111.32021	1405.88831	-671.90125	-0.64454	1044.06531	-661.37402	221.16208	1059.62915	-870.06390	104.88905	1060.45142	-725.18732	-62.35306	857.25525	-658.74969	-1.40728	809.01990	-742.03613	-49.30618	703.36462	-746.12140	-24.50122	613.63177	-727.69604	83.70573	572.40717	-753.04718	-21.94127	566.36011	-699.01691	20.81677	523.79724	-793.70605	-32.50066	484.20914	-769.13721	-6.74682	205.12537	-665.75000	-67.16344	162.89996	-624.70123	-77.96163	160.27484	-563.14807	-42.96679	164.06665	-603.54816	18.81281	167.57973	-718.67017	76.91640	217.49277	-675.35077	55.71785	159.22000	-795.39856	55.47520	173.83504	-716.66614	288.12109	876.96295	-659.30029	219.48280	827.99512	-755.55963	281.96558	745.38330	-773.75171	254.41646	633.64130	-731.25134	146.49538	574.26526	-769.67944	248.86034	572.73230	-711.55542	207.53522	535.77252	-804.18329	258.54367	496.85043	-772.73071	224.69890	203.13431	-667.10242	299.83484	159.28413	-629.58350	308.09909	161.46744	-562.27185	263.49576	166.26628	-595.54138	225.03104	175.57692	-712.91321	155.59419	218.64645	-675.96954	173.78038	159.10428	-796.42859	174.23485	182.78230	-527.96490	303.67175	146.33437	-517.98584	-72.97714	142.94334	-875.90973	-78.87967	141.26018	-882.57599	296.09164	144.60754	
67	1.320	-431.37451	120.54421	1777.92029	-606.74652	-59.31488	1546.13745	-635.23499	288.59415	1533.68066	-568.43134	110.92121	1401.60291	-675.71246	-0.41986	1043.33447	-666.64056	220.84657	1058.08923	-873.84302	105.00330	1061.44312	-729.24792	-61.97738	857.04962	-662.35254	-1.20344	809.17053	-744.80005	-49.71397	703.10205	-747.67273	-24.41800	613.68311	-728.87762	83.87115	572.45398	-754.34125	-21.89030	566.42072	-700.12054	20.87242	524.00122	-794.69714	-32.27432	484.11551	-769.36542	-6.83220	205.13301	-665.81464	-67.23804	162.78828	-624.80426	-77.95567	160.19658	-563.26660	-42.86524	164.11440	-603.79474	18.71447	167.73250	-718.82001	76.82175	217.42224	-675.44629	55.54012	159.31316	-795.45569	55.38644	173.73759	-721.19104	288.47012	876.84601	-663.80951	219.55408	828.19110	-759.23962	282.46014	745.02893	-776.34460	254.58157	633.28223	-733.14984	146.63194	574.28308	-771.69611	248.93353	572.43231	-713.27283	207.71082	535.84674	-805.86884	258.53104	496.48474	-772.92456	224.88197	203.05743	-667.12195	299.93457	159.25894	-629.60291	308.20834	161.41620	-562.33313	263.53671	166.25732	-595.62268	225.20508	175.74207	-713.00842	155.83943	218.72610	-675.97986	173.81787	159.28009	-796.50830	174.29845	182.74188	-527.99957	303.73651	146.37338	-518.01270	-73.03976	142.90486	-875.85547	-78.92384	141.25543	-882.59985	296.13217	144.64240	
68	1.340	-418.93942	119.40805	1769.86768	-598.67584	-59.01178	1542.46057	-627.27509	288.01495	1530.50427	-564.46326	110.45777	1396.78284	-679.67627	-0.07737	1042.62415	-672.74402	220.46063	1056.40027	-877.91931	105.06577	1062.36963	-733.10797	-61.71976	856.95239	-666.08453	-0.84376	809.29388	-747.69794	-50.17865	702.90973	-749.68481	-24.22222	613.64526	-730.52856	83.99904	572.41211	-756.13550	-21.79290	566.32135	-701.56122	20.93896	524.20081	-795.96344	-32.09011	483.93210	-769.61328	-6.90776	205.09462	-665.88751	-67.33305	162.64468	-624.90948	-77.93773	160.09612	-563.38763	-42.73416	164.20540	-604.03040	18.54747	167.89754	-719.02307	76.70263	217.41138	-675.55939	55.35107	159.48965	-795.56989	55.20456	173.64299	-725.92883	288.90143	876.66803	-668.52734	219.68115	828.37390	-763.10358	283.12958	744.70288	-779.08130	254.78477	632.82062	-735.24243	146.87949	574.22705	-773.89392	249.03613	572.10986	-715.13800	207.95453	535.95154	-807.67706	258.58615	496.04324	-773.14575	225.07813	202.96696	-667.16266	300.03696	159.20935	-629.62604	308.26593	161.36668	-562.39636	263.55215	166.25162	-595.72638	225.35344	175.90764	-713.17657	156.08998	218.87381	-675.92523	173.85555	159.47501	-796.64862	174.32912	182.68591	-528.04083	303.77295	146.39349	-518.03821	-73.09283	142.89290	-875.80267	-78.92657	141.25269	-882.61371	296.17001	144.66301	
69	1.360	-406.47037	118.29228	1761.14783	-590.34192	-58.60165	1538.18396	-618.92932	287.36230	1526.65027	-560.33624	110.01749	1391.43616	-683.75677	0.31295	1041.89050	-678.81488	220.12602	1054.88220	-882.33118	105.10807	1063.25488	-736.94617	-61.49797	856.85205	-669.94427	-0.33228	809.35406	-750.77448	-50.59394	702.81628	-752.15533	-23.99444	613.48889	-732.67804	84.11707	572.26996	-758.35608	-21.67507	566.13306	-703.35626	21.02223	524.39429	-797.57843	-32.00697	483.69754	-769.87299	-6.99754	204.97693	-665.96478	-67.41978	162.46428	-624.99451	-77.91286	160.01160	-563.50616	-42.57998	164.34325	-604.18762	18.32744	168.11276	-719.29181	76.52279	217.49077	-675.69818	55.15722	159.74341	-795.69531	54.99174	173.54749	-730.77484	289.46436	876.51477	-673.41046	219.87344	828.46930	-767.14673	283.88034	744.34991	-781.96814	254.99707	632.27527	-737.53241	147.15683	574.13666	-776.27301	249.18933	571.80286	-717.18890	208.22476	536.10254	-809.62012	258.71167	495.56271	-773.40070	225.25618	202.87262	-667.22516	300.13245	159.13777	-629.63995	308.27872	161.32887	-562.46478	263.52475	166.28488	-595.84723	225.45598	176.04211	-713.45544	156.28302	219.08276	-675.83984	173.88290	159.66684	-796.85236	174.34489	182.65697	-528.08667	303.77267	146.37106	-518.05023	-73.10888	142.89026	-875.77832	-78.91227	141.25763	-882.61243	296.19958	144.67908	
70	1.380	-394.00766	117.21844	1751.77258	-581.79547	-58.09481	1533.28320	-610.28192	286.61526	1522.05103	-556.21204	109.64816	1385.55859	-687.92407	0.66334	1041.09741	-684.10614	220.02388	1053.66882	-886.93201	105.12595	1064.08472	-740.95056	-61.24741	856.66571	-673.95776	0.26604	809.28571	-754.10486	-50.91355	702.75342	-755.01263	-23.80645	613.20001	-735.27118	84.21968	572.06592	-760.93451	-21.55428	565.90625	-705.52185	21.09225	524.58124	-799.51471	-31.99113	483.42908	-770.16846	-7.13640	204.79036	-666.03662	-67.48251	162.24712	-625.05341	-77.89251	159.96417	-563.62256	-42.41666	164.50209	-604.26630	18.09405	168.42619	-719.62079	76.23119	217.63750	-675.86639	54.99483	160.05811	-795.80078	54.82231	173.46539	-735.65710	290.09378	876.41980	-678.37982	220.09137	828.43121	-771.32642	284.53030	743.89746	-785.02368	255.21536	631.68951	-740.03375	147.36967	574.06219	-778.80450	249.35770	571.50787	-719.44305	208.45749	536.27985	-811.69330	258.86490	495.07462	-773.66675	225.40050	202.78134	-667.28552	300.20352	159.05898	-629.64575	308.27667	161.30202	-562.55200	263.44080	166.36136	-595.96521	225.50491	176.14143	-713.86597	156.40495	219.30650	-675.76978	173.89435	159.83150	-797.08264	174.33353	182.69232	-528.14142	303.75037	146.32097	-518.05035	-73.08144	142.89394	-875.80560	-78.91052	141.24622	-882.60004	296.22116	144.70049	
